<svg t="1721144534920" class="icon" viewBox="0 0 1024 1024" version="1.1" xmlns="http://www.w3.org/2000/svg" p-id="8063" width="200" height="200"><path d="M506.4 466.08h8.64a44.8 44.8 0 0 0 44 36.64h57.12a44.8 44.8 0 0 0 44.96-44.8v-4.48a44.96 44.96 0 0 0-44.96-44.8h-57.12a44.8 44.8 0 0 0-43.2 33.44h-10.24a44.96 44.96 0 0 0-43.36-33.44h-56.96a44.96 44.96 0 0 0-44.96 44.8v4.48a44.8 44.8 0 0 0 44.96 44.8h56.96a45.12 45.12 0 0 0 44.16-36.64z m32-12.64a20.8 20.8 0 0 1 20.8-20.8h57.12a20.96 20.96 0 0 1 20.96 20.8v4.48a20.96 20.96 0 0 1-20.96 20.8h-57.28a20.8 20.8 0 0 1-20.8-20.8z m-154.4 4.48v-4.48A20.96 20.96 0 0 1 405.28 432h56.96a20.96 20.96 0 0 1 20.96 20.8v4.48a20.96 20.96 0 0 1-20.96 20.8h-56.96A20.96 20.96 0 0 1 384 457.92z" fill="#FFB640" p-id="8064"></path><path d="M873.28 855.04l-20.32-62.56a210.56 210.56 0 0 0-203.84-145.92h-41.76v-1.44a9.44 9.44 0 0 1 0-2.24 201.6 201.6 0 0 0 102.24-126.4A66.72 66.72 0 0 0 747.52 400a28.64 28.64 0 0 0 0-3.68v-64a233.12 233.12 0 1 0-466.24 0v64a21.76 21.76 0 0 0 0 3.2 66.88 66.88 0 0 0 39.2 118.08 202.24 202.24 0 0 0 109.92 130.08h-49.44a210.56 210.56 0 0 0-203.68 145.92l-20.16 61.44a64 64 0 0 0 60.48 83.04h595.2a64 64 0 0 0 60.48-83.04z m-435.36-160a84.48 84.48 0 0 0 161.92 0h4.64l-87.84 176-96-176z m-50.88 5.12l24.64 45.28L368 722.08z m36.8 73.44a10.56 10.56 0 0 0 1.44-3.04L476.32 864l-82.08-53.44z m179.52-4.48a16 16 0 0 0 2.08 4.48l29.76 37.12-77.6 50.24z m10.72-21.6L640 696.8l21.44 25.28z m101.44-264.32c0-6.08 0.96-12.32 0.96-18.72v-45.92l4.32 0.96a34.88 34.88 0 0 1-5.28 64zM514.72 146.08a185.44 185.44 0 0 1 185.12 185.28v30.4l-42.24-20.8a104.64 104.64 0 0 0-88.32-2.08l-28.16 12.16a35.68 35.68 0 0 1-27.2 0l-48-18.4a105.28 105.28 0 0 0-82.4 3.04L329.6 361.6v-30.24A185.44 185.44 0 0 1 514.72 146.08z m-224 304a35.2 35.2 0 0 1 18.08-30.72 24.48 24.48 0 0 0 5.92-1.28V464a188.16 188.16 0 0 0 0.96 19.2 34.88 34.88 0 0 1-25.76-32.96z m56 14.24v-66.24l53.28-25.6a65.76 65.76 0 0 1 51.04-1.92l48 18.56a76 76 0 0 0 57.44-1.44l28-12.16a65.12 65.12 0 0 1 54.88 1.28l42.4 20.8h2.08V464a169.28 169.28 0 1 1-338.56 0zM515.2 665.76a202.24 202.24 0 0 0 44.8-4.96v11.2a24.16 24.16 0 0 0 23.52 23.52 68.8 68.8 0 0 1-128 0h1.12A23.84 23.84 0 0 0 480 672v-9.28a197.28 197.28 0 0 0 35.2 3.04zM204.96 883.68a15.04 15.04 0 0 1-2.08-13.76L224 807.36a160 160 0 0 1 124-109.44l-16 18.4a16 16 0 0 0-3.52 13.28 16 16 0 0 0 8.16 11.04L387.04 768l-28.96 36a16 16 0 0 0-3.2 12.64 16 16 0 0 0 7.04 10.72l96 62.08h-240a16 16 0 0 1-12.96-5.76z m620.32 0a14.72 14.72 0 0 1-12.48 6.4H571.84l96-61.92a16.8 16.8 0 0 0 7.04-10.88 16 16 0 0 0-3.36-12.64L642.4 768l50.88-28a16 16 0 0 0 8-11.04 16 16 0 0 0-3.52-13.28l-16-18.56a161.76 161.76 0 0 1 90.24 49.44 163.68 163.68 0 0 1 34.88 60.16l20.32 62.56a14.72 14.72 0 0 1-1.92 14.4z" fill="#1F61C1" p-id="8065"></path><path d="M587.04 548.96a16 16 0 0 0-32 0 32.96 32.96 0 0 1-36.16 28.16 32.96 32.96 0 0 1-36.16-28.16 16 16 0 0 0-32 0 64 64 0 0 0 68.16 60.16 64 64 0 0 0 68.16-60.16z" fill="#1F61C1" p-id="8066"></path></svg>